<?xml version="1.0" standalone="no"?>
<svg xmlns:xlink="http://www.w3.org/1999/xlink" id="wave" style="transform:rotate(0deg); transition: 0.3s" viewBox="0 0 1440 240" version="1.1" xmlns="http://www.w3.org/2000/svg"><defs><linearGradient id="sw-gradient-0" x1="0" x2="0" y1="1" y2="0"><stop stop-color="rgba(6, 6, 6, 1)" offset="0%"/><stop stop-color="rgba(6, 6, 6, 1)" offset="100%"/></linearGradient></defs><path style="transform:translate(0, 0px); opacity:1" fill="url(#sw-gradient-0)" d="M0,48L20,64C40,80,80,112,120,124C160,136,200,128,240,112C280,96,320,72,360,84C400,96,440,144,480,152C520,160,560,128,600,112C640,96,680,96,720,80C760,64,800,32,840,44C880,56,920,112,960,128C1000,144,1040,120,1080,116C1120,112,1160,128,1200,120C1240,112,1280,80,1320,64C1360,48,1400,48,1440,76C1480,104,1520,160,1560,152C1600,144,1640,72,1680,40C1720,8,1760,16,1800,24C1840,32,1880,40,1920,44C1960,48,2000,48,2040,64C2080,80,2120,112,2160,116C2200,120,2240,96,2280,108C2320,120,2360,168,2400,172C2440,176,2480,136,2520,128C2560,120,2600,144,2640,152C2680,160,2720,152,2760,148C2800,144,2840,144,2860,144L2880,144L2880,240L2860,240C2840,240,2800,240,2760,240C2720,240,2680,240,2640,240C2600,240,2560,240,2520,240C2480,240,2440,240,2400,240C2360,240,2320,240,2280,240C2240,240,2200,240,2160,240C2120,240,2080,240,2040,240C2000,240,1960,240,1920,240C1880,240,1840,240,1800,240C1760,240,1720,240,1680,240C1640,240,1600,240,1560,240C1520,240,1480,240,1440,240C1400,240,1360,240,1320,240C1280,240,1240,240,1200,240C1160,240,1120,240,1080,240C1040,240,1000,240,960,240C920,240,880,240,840,240C800,240,760,240,720,240C680,240,640,240,600,240C560,240,520,240,480,240C440,240,400,240,360,240C320,240,280,240,240,240C200,240,160,240,120,240C80,240,40,240,20,240L0,240Z"/></svg>