<?xml version="1.0" standalone="no"?>
<svg xmlns:xlink="http://www.w3.org/1999/xlink" id="wave" style="transform:rotate(180deg); transition: 0.3s" viewBox="0 0 1440 250" version="1.1" xmlns="http://www.w3.org/2000/svg"><defs><linearGradient id="sw-gradient-0" x1="0" x2="0" y1="1" y2="0"><stop stop-color="rgba(6, 6, 6, 1)" offset="0%"/><stop stop-color="rgba(6, 6, 6, 1)" offset="100%"/></linearGradient></defs><path style="transform:translate(0, 0px); opacity:1" fill="url(#sw-gradient-0)" d="M0,25L20,37.5C40,50,80,75,120,100C160,125,200,150,240,170.8C280,192,320,208,360,179.2C400,150,440,75,480,37.5C520,0,560,0,600,33.3C640,67,680,133,720,150C760,167,800,133,840,112.5C880,92,920,83,960,95.8C1000,108,1040,142,1080,133.3C1120,125,1160,75,1200,83.3C1240,92,1280,158,1320,158.3C1360,158,1400,92,1440,79.2C1480,67,1520,108,1560,137.5C1600,167,1640,183,1680,183.3C1720,183,1760,167,1800,154.2C1840,142,1880,133,1920,116.7C1960,100,2000,75,2040,75C2080,75,2120,100,2160,112.5C2200,125,2240,125,2280,120.8C2320,117,2360,108,2400,112.5C2440,117,2480,133,2520,154.2C2560,175,2600,200,2640,179.2C2680,158,2720,92,2760,75C2800,58,2840,92,2860,108.3L2880,125L2880,250L2860,250C2840,250,2800,250,2760,250C2720,250,2680,250,2640,250C2600,250,2560,250,2520,250C2480,250,2440,250,2400,250C2360,250,2320,250,2280,250C2240,250,2200,250,2160,250C2120,250,2080,250,2040,250C2000,250,1960,250,1920,250C1880,250,1840,250,1800,250C1760,250,1720,250,1680,250C1640,250,1600,250,1560,250C1520,250,1480,250,1440,250C1400,250,1360,250,1320,250C1280,250,1240,250,1200,250C1160,250,1120,250,1080,250C1040,250,1000,250,960,250C920,250,880,250,840,250C800,250,760,250,720,250C680,250,640,250,600,250C560,250,520,250,480,250C440,250,400,250,360,250C320,250,280,250,240,250C200,250,160,250,120,250C80,250,40,250,20,250L0,250Z"/></svg>